<svg width="32" height="32" viewBox="0 0 32 32" fill="none" xmlns="http://www.w3.org/2000/svg">
<path id="Vector" d="M27.5446 19.0064C30.0062 19.0064 32 20.6263 32 22.6263V24.0042H31.9877C31.904 25.5642 31.3772 27.5181 29.2234 29.1141C26.8702 30.86 22.8062 32 16 32C9.19139 32 5.12985 30.86 2.77661 29.1141C0.622769 27.5181 0.0960003 25.5622 0.012308 24.0042H0V22.6243C0 20.6263 1.99385 19.0064 4.45538 19.0064H27.5446ZM7.38462 2.00082C6.40535 2.00082 5.4662 2.31688 4.77376 2.87947C4.08132 3.44207 3.69231 4.20511 3.69231 5.00073V13.0005C3.69231 13.7961 4.08132 14.5592 4.77376 15.1218C5.4662 15.6844 6.40535 16.0004 7.38462 16.0004H24.6154C25.5946 16.0004 26.5338 15.6844 27.2262 15.1218C27.9187 14.5592 28.3077 13.7961 28.3077 13.0005V5.00073C28.3077 4.20511 27.9187 3.44207 27.2262 2.87947C26.5338 2.31688 25.5946 2.00082 24.6154 2.00082H17.2308V1.00084C17.2377 0.868015 17.2107 0.735459 17.1513 0.611574C17.0919 0.48769 17.0015 0.375179 16.8858 0.28117C16.7701 0.187161 16.6316 0.113704 16.4791 0.0654529C16.3266 0.0172023 16.1635 -0.00478966 16 0.000870418C15.3206 0.000870418 14.7692 0.460858 14.7692 1.00084V2.00082H7.38462ZM8.61539 9.00063C8.61539 8.47021 8.87473 7.96151 9.33635 7.58645C9.79798 7.21139 10.4241 7.00068 11.0769 7.00068C11.7298 7.00068 12.3559 7.21139 12.8175 7.58645C13.2791 7.96151 13.5385 8.47021 13.5385 9.00063C13.5385 9.53104 13.2791 10.0397 12.8175 10.4148C12.3559 10.7899 11.7298 11.0006 11.0769 11.0006C10.4241 11.0006 9.79798 10.7899 9.33635 10.4148C8.87473 10.0397 8.61539 9.53104 8.61539 9.00063ZM18.4615 9.00063C18.4615 8.47021 18.7209 7.96151 19.1825 7.58645C19.6441 7.21139 20.2702 7.00068 20.9231 7.00068C21.5759 7.00068 22.202 7.21139 22.6636 7.58645C23.1253 7.96151 23.3846 8.47021 23.3846 9.00063C23.3846 9.53104 23.1253 10.0397 22.6636 10.4148C22.202 10.7899 21.5759 11.0006 20.9231 11.0006C20.2702 11.0006 19.6441 10.7899 19.1825 10.4148C18.7209 10.0397 18.4615 9.53104 18.4615 9.00063Z" fill="#4A90A7" fill-opacity="0.4"/>
</svg>
