<svg width="32" height="23" viewBox="0 0 32 23" fill="none" xmlns="http://www.w3.org/2000/svg">
<path id="Vector" d="M16 0C17.2377 0 18.4247 0.584912 19.2998 1.62606C20.175 2.66721 20.6667 4.07932 20.6667 5.55172C20.6667 7.02413 20.175 8.43624 19.2998 9.47739C18.4247 10.5185 17.2377 11.1034 16 11.1034C14.7623 11.1034 13.5753 10.5185 12.7002 9.47739C11.825 8.43624 11.3333 7.02413 11.3333 5.55172C11.3333 4.07932 11.825 2.66721 12.7002 1.62606C13.5753 0.584912 14.7623 0 16 0ZM6.66667 3.96552C7.41333 3.96552 8.10667 4.20345 8.70667 4.63172C8.50667 6.9 9.06667 9.15241 10.2133 10.9131C9.54667 12.4359 8.21333 13.4828 6.66667 13.4828C5.6058 13.4828 4.58839 12.9814 3.83824 12.089C3.08809 11.1966 2.66667 9.9862 2.66667 8.72414C2.66667 7.46207 3.08809 6.2517 3.83824 5.35928C4.58839 4.46687 5.6058 3.96552 6.66667 3.96552ZM25.3333 3.96552C26.3942 3.96552 27.4116 4.46687 28.1618 5.35928C28.9119 6.2517 29.3333 7.46207 29.3333 8.72414C29.3333 9.9862 28.9119 11.1966 28.1618 12.089C27.4116 12.9814 26.3942 13.4828 25.3333 13.4828C23.7867 13.4828 22.4533 12.4359 21.7867 10.9131C22.9333 9.15241 23.4933 6.9 23.2933 4.63172C23.8933 4.20345 24.5867 3.96552 25.3333 3.96552ZM7.33333 20.2241C7.33333 16.9407 11.2133 14.2759 16 14.2759C20.7867 14.2759 24.6667 16.9407 24.6667 20.2241V23H7.33333V20.2241ZM0 23V20.6207C0 18.4159 2.52 16.56 5.93333 16.0207C5.14667 17.0993 4.66667 18.5903 4.66667 20.2241V23H0ZM32 23H27.3333V20.2241C27.3333 18.5903 26.8533 17.0993 26.0667 16.0207C29.48 16.56 32 18.4159 32 20.6207V23Z" fill="#4A90A7" fill-opacity="0.4"/>
</svg>
