<svg width="28" height="23" viewBox="0 0 28 23" fill="none" xmlns="http://www.w3.org/2000/svg">
<path id="Vector" d="M20.582 11.5V1.15C20.582 0.845001 20.4398 0.552494 20.1866 0.336827C19.9335 0.12116 19.5901 0 19.232 0H1.68203C1.32399 0 0.980611 0.12116 0.727437 0.336827C0.474263 0.552494 0.332031 0.845001 0.332031 1.15V17.25L5.73203 12.65H19.232C19.5901 12.65 19.9335 12.5288 20.1866 12.3132C20.4398 12.0975 20.582 11.805 20.582 11.5ZM25.982 4.6H23.282V14.95H5.73203V17.25C5.73203 17.555 5.87426 17.8475 6.12744 18.0632C6.38061 18.2788 6.72399 18.4 7.08203 18.4H21.932L27.332 23V5.75C27.332 5.445 27.1898 5.15249 26.9366 4.93683C26.6835 4.72116 26.3401 4.6 25.982 4.6Z" fill="#4A90A7"/>
</svg>
